Coordinates
version=1
nRows=8
nColumns=46
inDegrees=yes

Units are S.I. units (second, meters, Newtons, ...)
Angles are in degrees.

endheader
time	pelvis_tilt	pelvis_list	pelvis_rotation	pelvis_tx	pelvis_ty	pelvis_tz	bb_angle	bb_tx	bb_ty	bb_tz	hip_flexion_r	hip_adduction_r	hip_rotation_r	knee_angle_r	knee_angle_r_beta	ankle_angle_r	subtalar_angle_r	mtp_angle_r	crank_angle_r	hip_flexion_l	hip_adduction_l	hip_rotation_l	knee_angle_l	knee_angle_l_beta	ankle_angle_l	subtalar_angle_l	mtp_angle_l	crank_angle_l	lumbar_extension	lumbar_bending	lumbar_rotation	arm_flex_r	arm_add_r	arm_rot_r	elbow_flex_r	pro_sup_r	wrist_flex_r	wrist_dev_r	arm_flex_l	arm_add_l	arm_rot_l	elbow_flex_l	pro_sup_l	wrist_flex_l	wrist_dev_l
      2.50500000	    -15.22550279	     -4.97590636	     -3.60453745	      0.18755103	      1.06021511	     -0.23785326	      0.00000000	      0.50000000	      0.00000000	      0.25000000	     72.29409205	      4.14909759	      2.75911197	     79.53605312	      1.38816600	     27.48976868	     -7.20502096	      0.00000000	      0.00000000	     48.54916503	    -12.67746862	      0.83068165	     69.86336553	      1.21934575	    -13.68542951	     -9.70078228	      0.00000000	      0.00000000	    -66.01079068	      9.53733145	      8.42034016	     89.41909287	     -9.12873281	     26.65308777	     63.31197810	     40.25132068	      0.00000000	      0.00000000	     86.72565238	    -32.72148552	     38.02548031	     58.83965129	     44.50351187	      0.00000000	      0.00000000
      2.51000000	    -15.12128831	     -4.75368553	     -3.13344619	      0.18829933	      1.06078419	     -0.23743140	      0.00000000	      0.50000000	      0.00000000	      0.25000000	     71.64597580	      3.69932914	      2.77313793	     78.44363223	      1.36909966	     27.02686069	     -7.41368026	      0.00000000	      0.00000000	     48.75442765	    -12.40272259	      0.87409714	     70.78740124	      1.23547322	    -13.26327141	     -9.47346974	      0.00000000	      0.00000000	    -66.13554991	      9.55144647	      8.00527114	     89.37232949	     -9.16145029	     26.35794993	     63.50091643	     40.46040926	      0.00000000	      0.00000000	     86.33497549	    -32.33101609	     36.53145475	     59.39809104	     44.46124396	      0.00000000	      0.00000000
      2.51500000	    -15.19533583	     -4.24471686	     -2.76254189	      0.18890325	      1.06080882	     -0.23681600	      0.00000000	      0.50000000	      0.00000000	      0.25000000	     71.28352318	      3.17524610	      3.05898295	     77.45988154	      1.35192997	     26.46698835	     -7.40527864	      0.00000000	      0.00000000	     49.12145416	    -11.95984910	      0.69191032	     71.77265481	      1.25266914	    -12.62386673	     -9.07040890	      0.00000000	      0.00000000	    -65.88097409	      9.23271439	      7.24797640	     89.32399512	     -9.25651218	     26.37344252	     63.12629990	     40.42096807	      0.00000000	      0.00000000	     86.84724821	    -32.45266504	     37.74264434	     59.14945147	     44.50876110	      0.00000000	      0.00000000
      2.52000000	    -15.23854117	     -3.85700310	     -2.27172146	      0.18974941	      1.06103056	     -0.23638711	      0.00000000	      0.50000000	      0.00000000	      0.25000000	     70.82586457	      2.59227595	      3.16830879	     76.43666558	      1.33407148	     25.86597416	     -7.52304331	      0.00000000	      0.00000000	     49.46445342	    -11.51138265	      0.65853098	     72.68343828	      1.26856531	    -12.16862678	     -8.88901869	      0.00000000	      0.00000000	    -65.76023745	      9.18773447	      6.48439866	     89.29238532	     -9.24428422	     26.63627750	     62.74988855	     40.98774669	      0.00000000	      0.00000000	     86.40930480	    -32.28517176	     36.77641531	     59.69175208	     44.50140354	      0.00000000	      0.00000000
      2.52500000	    -15.20227981	     -3.54085576	     -1.87985457	      0.19041251	      1.06121278	     -0.23589477	      0.00000000	      0.50000000	      0.00000000	      0.25000000	     70.27289754	      2.14003509	      3.28527959	     75.39439345	      1.31588040	     25.28490667	     -7.49665237	      0.00000000	      0.00000000	     49.77100279	    -11.18961361	      0.63249567	     73.71798697	      1.28662159	    -11.58040788	     -8.58567299	      0.00000000	      0.00000000	    -65.75985690	      9.10341462	      5.98122651	     89.21284066	     -9.06394098	     26.05003212	     62.77563821	     41.19722666	      0.00000000	      0.00000000	     86.68656783	    -32.44039303	     37.53328835	     59.72893194	     44.54632239	      0.00000000	      0.00000000
      2.53000000	    -14.96666344	     -3.17921034	     -1.52537443	      0.19097269	      1.06164491	     -0.23565648	      0.00000000	      0.50000000	      0.00000000	      0.25000000	     69.50345533	      1.67119337	      3.43129425	     74.31075245	      1.29696730	     24.62077299	     -7.63238574	      0.00000000	      0.00000000	     49.87247189	    -10.85353626	      0.51161059	     74.74492714	      1.30454508	    -11.13400558	     -8.45206670	      0.00000000	      0.00000000	    -65.98436901	      9.02514988	      5.38336263	     89.17921839	     -8.78338124	     25.67249638	     62.71016677	     41.30037018	      0.00000000	      0.00000000	     86.30755876	    -32.17306340	     36.06981512	     60.24009138	     44.49998911	      0.00000000	      0.00000000
      2.53500000	    -15.00279329	     -2.72570947	     -1.23411314	      0.19166274	      1.06159130	     -0.23501533	      0.00000000	      0.50000000	      0.00000000	      0.25000000	     69.05541040	      1.21290090	      3.64196598	     73.28210660	      1.27901404	     23.88431090	     -7.62309306	      0.00000000	      0.00000000	     50.24803788	    -10.51798220	      0.32206222	     75.80825511	      1.32310365	    -10.51884586	     -8.09775897	      0.00000000	      0.00000000	    -65.89466517	      8.81382499	      4.50125756	     89.11218527	     -8.17949752	     25.21744063	     62.38171780	     41.31837134	      0.00000000	      0.00000000	     86.58296458	    -33.10379382	     37.29478946	     60.86617123	     44.67055098	      0.00000000	      0.00000000
      2.54000000	    -15.01715649	     -2.34729415	     -0.86849855	      0.19244098	      1.06158960	     -0.23448217	      0.00000000	      0.50000000	      0.00000000	      0.25000000	     68.53989059	      0.71759376	      3.75090005	     72.25695158	      1.26112171	     23.22289374	     -7.66250861	      0.00000000	      0.00000000	     50.63664391	    -10.17598678	      0.23504599	     76.86566477	      1.34155893	    -10.05467134	     -7.89580708	      0.00000000	      0.00000000	    -65.80105644	      8.69715578	      3.89707567	     89.06748399	     -8.33611094	     25.55323409	     62.16956331	     41.73814638	      0.00000000	      0.00000000	     86.29949651	    -32.70503105	     36.12726970	     60.95659885	     44.57351948	      0.00000000	      0.00000000
